<svg xmlns="http://www.w3.org/2000/svg" viewBox="0 0 83 90"><defs><style>.cls-1{isolation:isolate;}.cls-2{fill:#fbc98a;}.cls-3{fill:#d6a484;}.cls-4{fill:#c68155;}.cls-5{fill:#fcd9ac;}.cls-6{fill:#ddb399;}.cls-7{fill:#efe3df;}.cls-10,.cls-7{mix-blend-mode:multiply;}.cls-8{fill:#fbd099;}.cls-9{fill:#d39d78;}.cls-11{fill:#beb194;}.cls-12{fill:#ed1d24;fill-rule:evenodd;}</style></defs><g class="cls-1"><g id="Layer_1" data-name="Layer 1"><g id="boxes"><rect class="cls-2" x="16.92" y="59.99" width="41.66" height="30.01"/><rect class="cls-3" x="58.58" y="59.99" width="14.99" height="30.01"/><rect class="cls-3" x="16.92" y="89.32" width="41.66" height="0.68"/><rect class="cls-4" x="58.58" y="89.32" width="14.99" height="0.68"/><path class="cls-5" d="M57.63,60.94H17.87a1,1,0,0,1-.95-.95H58.58A.94.94,0,0,1,57.63,60.94Z"/><path class="cls-6" d="M58.58,60h15a0,0,0,0,1,0,0v.24a.71.71,0,0,1-.71.71H59.29a.71.71,0,0,1-.71-.71V60A0,0,0,0,1,58.58,60Z"/><polygon class="cls-7" points="51.09 59.99 16.92 63.37 16.92 59.99 51.09 59.99"/><rect class="cls-8" x="9.43" y="29.98" width="41.66" height="30.01"/><rect class="cls-9" x="51.09" y="29.98" width="14.99" height="30.01"/><rect class="cls-3" x="9.43" y="59.31" width="41.66" height="0.68"/><rect class="cls-4" x="51.09" y="59.31" width="14.99" height="0.68"/><path class="cls-5" d="M50.14,30.93H10.38a.94.94,0,0,1-1-.95H51.09A1,1,0,0,1,50.14,30.93Z"/><path class="cls-6" d="M51.09,30h15a0,0,0,0,1,0,0v.24a.71.71,0,0,1-.71.71H51.8a.71.71,0,0,1-.71-.71V30a0,0,0,0,1,0,0Z"/><rect class="cls-2" x="15.81" width="41.66" height="30.01"/><rect class="cls-3" x="57.47" width="14.99" height="30.01"/><rect class="cls-3" x="15.81" y="29.33" width="41.66" height="0.68"/><rect class="cls-4" x="57.47" y="29.33" width="14.99" height="0.68"/><path class="cls-5" d="M56.52,1H16.76a1,1,0,0,1-1-.95H57.47A1,1,0,0,1,56.52,1Z"/><path class="cls-6" d="M57.47,0h15a0,0,0,0,1,0,0V.24a.71.71,0,0,1-.71.71H58.18a.71.71,0,0,1-.71-.71V0a0,0,0,0,1,0,0Z"/><g class="cls-10"><polygon class="cls-11" points="58.36 38.46 58.61 38 58.87 38.46 59.12 38 59.38 38.46 59.63 38 59.89 38.46 60.14 38 60.4 38.46 60.65 38 60.91 38.46 61.16 38 61.42 38.46 61.68 38 61.93 38.45 61.93 30.04 58.36 30.04 58.36 38.46 58.36 38.46"/></g><g class="cls-10"><polygon class="cls-11" points="65.15 60.02 66.14 67.96 66.14 67.96 66.34 67.47 66.65 67.9 66.84 67.41 67.15 67.83 67.35 67.34 67.66 67.77 67.85 67.28 68.17 67.71 68.36 67.22 68.67 67.64 68.87 67.15 69.18 67.58 69.38 67.09 69.68 67.51 68.75 60.02 65.15 60.02"/></g><g class="cls-10"><polygon class="cls-11" points="63.14 0.03 64.13 7.97 64.13 7.97 64.33 7.48 64.64 7.91 64.83 7.42 65.14 7.85 65.34 7.36 65.65 7.79 65.84 7.29 66.15 7.72 66.35 7.23 66.66 7.66 66.86 7.17 67.17 7.59 67.36 7.1 67.67 7.53 66.74 0.03 63.14 0.03"/></g></g><path class="cls-12" d="M35.94,16.41l.7-2.18-1.85-1.34-1.5.49,1.14,3.52ZM34.81,12.9H37.1l.7-2.18-.93-1.28-3,2.18Zm3-2.16.71,2.17H40.8l.93-1.28-3-2.17Zm3,2.18-1.85,1.34.71,2.18,1.5.49,1.15-3.52Zm-1.15,3.5-1.85-1.34-1.85,1.34V18h3.7Z"/><path class="cls-12" d="M27.94,46.41l.7-2.18-1.85-1.34-1.5.49,1.14,3.52ZM26.81,42.9H29.1l.7-2.18-.93-1.28-3,2.18Zm3-2.16.71,2.17H32.8l.93-1.28-3-2.17Zm3,2.18-1.85,1.34.71,2.18,1.5.49,1.15-3.52Zm-1.15,3.5-1.85-1.34-1.85,1.34V48h3.7Z"/><path class="cls-12" d="M35.94,76.41l.7-2.18-1.85-1.34-1.5.49,1.14,3.52ZM34.81,72.9H37.1l.7-2.18-.93-1.28-3,2.18Zm3-2.16.71,2.17H40.8l.93-1.28-3-2.17Zm3,2.18-1.85,1.34.71,2.18,1.5.49,1.15-3.52Zm-1.15,3.5-1.85-1.34-1.85,1.34V78h3.7Z"/></g></g></svg>